<svg width="31" height="24" viewBox="0 0 31 24" fill="none" xmlns="http://www.w3.org/2000/svg">
    <path d="M13.7946 18.8653C13.7946 19.4977 14.4316 20.0104 15.2176 20.0104C16.0013 20.0104 16.6382 19.4979 16.6393 18.8663L16.6378 13.1456L23.7481 13.1458C24.5329 13.145 25.1698 12.6324 25.1698 12.0017C25.1698 11.7307 25.0529 11.4818 24.8581 11.2863C24.5969 11.0245 24.1959 10.8566 23.7468 10.8566L16.6388 10.8563L16.6385 5.13282C16.6373 4.50128 16.0003 3.98864 15.2166 3.98861C14.8821 3.9886 14.5739 4.0817 14.331 4.23658C14.0033 4.44678 13.7937 4.77037 13.7937 5.13363L13.7941 10.8571L6.6827 10.8559C5.89675 10.8559 5.25977 11.3685 5.25981 12.001C5.25985 12.6316 5.89689 13.1442 6.6817 13.1452L13.7942 13.1454L13.7946 18.8653Z" fill="white"/>
    </svg>
    